<svg width="24" height="24" viewBox="0 0 24 24" fill="none" xmlns="http://www.w3.org/2000/svg">
<path d="M1.998 5.5C1.998 4.119 3.117 3 4.498 3H19.498C20.879 3 21.998 4.119 21.998 5.5V18.5C21.998 19.881 20.879 21 19.498 21H4.498C3.117 21 1.998 19.881 1.998 18.5V5.5ZM4.498 5C4.222 5 3.998 5.224 3.998 5.5V8.264L11.998 11.902L19.998 8.266V5.5C19.998 5.224 19.774 5 19.498 5H4.498ZM19.998 10.463L11.998 14.099L3.998 10.461V18.5C3.998 18.776 4.222 19 4.498 19H19.498C19.774 19 19.998 18.776 19.998 18.5V10.463Z" fill="black"/>
</svg>
